<?xml version="1.0" standalone="no"?>
<!DOCTYPE svg PUBLIC "-//W3C//DTD SVG 20010904//EN" "http://www.w3.org/TR/2001/REC-SVG-20010904/DTD/svg10.dtd">
<svg version="1.0" xmlns="http://www.w3.org/2000/svg"
    width="40pt" height="40pt" viewBox="0 0 512.000000 512.000000"
    preserveAspectRatio="xMidYMid meet">

    <g transform="translate(0.000000,512.000000) scale(0.100000,-0.100000)"
        fill="#5cff5f" stroke="none">
        <path
            d="M2361 4242 c-68 -34 -75 -55 -81 -229 l-5 -155 -80 -27 c-102 -35
-165 -67 -242 -125 -132 -100 -239 -279 -274 -460 -17 -88 -12 -252 10 -339
71 -274 276 -456 701 -620 277 -107 363 -182 331 -288 -37 -125 -277 -155
-546 -68 -49 16 -124 46 -165 67 -94 48 -121 55 -168 42 -71 -19 -88 -48 -153
-271 -43 -148 -58 -213 -54 -237 21 -116 263 -230 608 -287 l37 -6 0 -117 c0
-136 11 -185 50 -224 l28 -28 192 0 c280 0 283 2 288 253 3 137 6 159 20 164
92 31 197 81 266 127 91 61 199 169 242 244 15 26 34 54 44 63 9 9 29 54 45
100 23 71 29 105 32 219 9 249 -54 423 -209 580 -109 111 -250 197 -470 286
-172 69 -312 140 -352 177 -46 44 -49 86 -8 127 38 37 88 50 200 50 123 0 224
-22 355 -77 116 -49 164 -55 216 -29 53 28 56 35 146 346 35 121 35 126 20
166 -8 22 -28 52 -43 67 -55 53 -246 122 -417 150 l-80 13 -5 141 c-4 123 -8
145 -26 170 -36 49 -55 53 -244 53 -147 0 -180 -3 -209 -18z" />
    </g>
</svg>